<svg xmlns="http://www.w3.org/2000/svg" version="1.1" xmlns:xlink="http://www.w3.org/1999/xlink" viewBox="0 0 200 200"><rect width="200" height="200" fill="url('#gradient')"></rect><defs><linearGradient id="gradient" gradientTransform="rotate(45 0.5 0.5)"><stop offset="0%" stop-color="#efd9ae"></stop><stop offset="100%" stop-color="#cba166"></stop></linearGradient></defs><g><g fill="#a48a68" transform="matrix(3.8946388832692698,0,0,3.8946388832692698,2.30497500013297,128.82267038197548)" stroke="#281a1a" stroke-width="0.75"><path d="M0.95-10.57L4.03-10.57L4.14-9.33Q5.26-10.76 7.16-10.76L7.16-10.76Q9.16-10.76 9.86-9.17L9.86-9.17Q10.94-10.76 12.97-10.76L12.97-10.76Q16.18-10.76 16.27-6.88L16.27-6.88L16.27 0L12.97 0L12.97-6.67Q12.97-7.48 12.70-7.85Q12.42-8.22 11.70-8.22L11.70-8.22Q10.72-8.22 10.24-7.35L10.24-7.35L10.25-7.22L10.25 0L6.95 0L6.95-6.65Q6.95-7.48 6.69-7.85Q6.43-8.22 5.68-8.22L5.68-8.22Q4.74-8.22 4.24-7.35L4.24-7.35L4.24 0L0.95 0L0.95-10.57ZM21.62-10.57L21.62 0L18.32 0L18.32-10.57L21.62-10.57ZM18.13-13.29L18.13-13.29Q18.13-13.99 18.63-14.44Q19.14-14.89 19.95-14.89Q20.76-14.89 21.27-14.44Q21.78-13.99 21.78-13.29Q21.78-12.59 21.27-12.14Q20.76-11.69 19.95-11.69Q19.14-11.69 18.63-12.14Q18.13-12.59 18.13-13.29ZM27.12-15L27.12 0L23.82 0L23.82-15L27.12-15ZM38.39 0L35.10 0Q34.92-0.32 34.79-0.95L34.79-0.95Q33.88 0.20 32.25 0.20L32.25 0.20Q30.75 0.20 29.71-0.71Q28.66-1.61 28.66-2.98L28.66-2.98Q28.66-4.70 29.93-5.58Q31.20-6.46 33.62-6.46L33.62-6.46L34.64-6.46L34.64-7.01Q34.64-8.47 33.38-8.47L33.38-8.47Q32.21-8.47 32.21-7.31L32.21-7.31L28.92-7.31Q28.92-8.85 30.22-9.80Q31.52-10.76 33.54-10.76Q35.57-10.76 36.74-9.78Q37.91-8.79 37.94-7.07L37.94-7.07L37.94-2.39Q37.96-0.94 38.39-0.17L38.39-0.17L38.39 0ZM33.04-2.15L33.04-2.15Q33.65-2.15 34.06-2.41Q34.46-2.68 34.64-3.01L34.64-3.01L34.64-4.70L33.68-4.70Q31.96-4.70 31.96-3.15L31.96-3.15Q31.96-2.71 32.27-2.43Q32.57-2.15 33.04-2.15ZM39.70-10.57L42.78-10.57L42.89-9.33Q43.98-10.76 45.91-10.76L45.91-10.76Q47.56-10.76 48.37-9.78Q49.19-8.79 49.22-6.81L49.22-6.81L49.22 0L45.92 0L45.92-6.67Q45.92-7.47 45.60-7.85Q45.27-8.22 44.42-8.22L44.42-8.22Q43.46-8.22 42.99-7.46L42.99-7.46L42.99 0L39.70 0L39.70-10.57Z"></path></g></g></svg>