<svg width="349" height="59" viewBox="0 0 349 59" fill="none" xmlns="http://www.w3.org/2000/svg">
<path d="M19.3378 25H11.5727V23.9411C11.8187 23.9197 12.0914 23.8983 12.3909 23.877C12.6904 23.8556 12.9364 23.8128 13.1289 23.7486C13.4284 23.6523 13.6476 23.4866 13.7867 23.2513C13.9364 23.0053 14.0113 22.6897 14.0113 22.3047V14.1706C14.0113 13.0476 13.7439 12.1812 13.2091 11.5716C12.685 10.9619 12.0433 10.6571 11.2839 10.6571C10.7277 10.6571 10.209 10.748 9.72768 10.9298C9.25707 11.101 8.83459 11.3149 8.46024 11.5716C8.09659 11.839 7.8185 12.1064 7.62598 12.3737C7.43345 12.6411 7.28371 12.8657 7.17676 13.0476V22.1443C7.17676 22.5079 7.24628 22.8074 7.38532 23.0427C7.53506 23.278 7.75967 23.4598 8.05915 23.5882C8.29446 23.6951 8.53511 23.7753 8.78111 23.8288C9.03781 23.8823 9.31589 23.9197 9.61537 23.9411V25H1.85031V23.9411C2.09631 23.9197 2.353 23.8983 2.6204 23.877C2.88779 23.8449 3.1124 23.8021 3.29422 23.7486C3.5937 23.6523 3.81831 23.4866 3.96805 23.2513C4.11779 23.0053 4.19266 22.6897 4.19266 22.3047V3.88672C4.19266 3.52307 4.1071 3.15941 3.93597 2.79576C3.77553 2.43211 3.56162 2.15937 3.29422 1.97754C3.1017 1.83849 2.75944 1.74223 2.26744 1.68876C1.78613 1.62458 1.39574 1.5818 1.09626 1.56041V0.533621L6.95215 0.16462L7.17676 0.405273V11.4432H7.24093C7.59389 11.0903 7.91476 10.7801 8.20354 10.5127C8.49233 10.2346 8.87202 9.94582 9.34263 9.64634C9.74907 9.38965 10.225 9.17573 10.7705 9.0046C11.3267 8.83347 11.947 8.74791 12.6316 8.74791C14.0434 8.74791 15.129 9.19713 15.8884 10.0956C16.6478 10.9833 17.0275 12.2668 17.0275 13.946V22.1763C17.0275 22.5507 17.0917 22.8555 17.22 23.0908C17.359 23.3154 17.5837 23.4919 17.8938 23.6203C18.1398 23.7165 18.3591 23.7914 18.5516 23.8449C18.7548 23.8876 19.0169 23.9197 19.3378 23.9411V25ZM28.9639 25H21.3111V23.9411C21.5571 23.9197 21.8085 23.8983 22.0652 23.877C22.3325 23.8556 22.5625 23.8128 22.755 23.7486C23.0545 23.6523 23.2738 23.4866 23.4128 23.2513C23.5625 23.0053 23.6374 22.6897 23.6374 22.3047V12.5342C23.6374 12.1919 23.5572 11.8817 23.3968 11.6037C23.247 11.3149 23.0331 11.0742 22.755 10.8817C22.5518 10.7533 22.2577 10.6464 21.8726 10.5608C21.4876 10.4646 21.1346 10.4057 20.8138 10.3843V9.34152L26.3969 8.98856L26.6215 9.21317V22.1122C26.6215 22.4865 26.691 22.7967 26.8301 23.0427C26.9798 23.2887 27.2098 23.4705 27.52 23.5882C27.7553 23.6844 27.9852 23.7646 28.2098 23.8288C28.4344 23.8823 28.6858 23.9197 28.9639 23.9411V25ZM26.9424 2.74763C26.9424 3.35728 26.7392 3.89207 26.3327 4.35198C25.937 4.8012 25.445 5.02581 24.8567 5.02581C24.3112 5.02581 23.8353 4.8119 23.4289 4.38407C23.0331 3.94554 22.8352 3.4482 22.8352 2.89202C22.8352 2.30376 23.0331 1.79036 23.4289 1.35184C23.8353 0.913318 24.3112 0.694057 24.8567 0.694057C25.4664 0.694057 25.9637 0.902622 26.3488 1.31975C26.7445 1.72619 26.9424 2.20215 26.9424 2.74763ZM41.3495 17.251C41.788 17.636 42.1249 18.0799 42.3602 18.5826C42.5955 19.0853 42.7132 19.7003 42.7132 20.4276C42.7132 21.8929 42.1623 23.0908 41.0607 24.0213C39.9697 24.9519 38.5525 25.4171 36.8092 25.4171C35.8893 25.4171 35.039 25.2513 34.2582 24.9198C33.4881 24.5882 32.9373 24.2834 32.6057 24.0053L32.2849 25.0481H31.0816L30.9212 19.5452H32.0282C32.1137 19.9623 32.2956 20.449 32.5737 21.0052C32.8517 21.5613 33.1887 22.064 33.5844 22.5133C34.0015 22.9839 34.4989 23.3796 35.0765 23.7005C35.6647 24.0213 36.3225 24.1818 37.0498 24.1818C38.0766 24.1818 38.8681 23.9518 39.4242 23.4919C39.9804 23.0213 40.2585 22.3528 40.2585 21.4865C40.2585 21.0372 40.1676 20.6522 39.9858 20.3313C39.8146 19.9998 39.5579 19.711 39.2157 19.465C38.8627 19.219 38.4295 18.9997 37.9162 18.8072C37.4028 18.604 36.8305 18.4061 36.1995 18.2136C35.6968 18.0638 35.1353 17.8606 34.5149 17.6039C33.9053 17.3365 33.3812 17.0264 32.9427 16.6734C32.4721 16.2991 32.087 15.8391 31.7875 15.2937C31.488 14.7482 31.3383 14.1064 31.3383 13.3684C31.3383 12.0743 31.8196 10.978 32.7822 10.0795C33.7448 9.18108 35.0337 8.73186 36.6487 8.73186C37.2691 8.73186 37.9001 8.81208 38.5419 8.97252C39.1943 9.13295 39.7237 9.32547 40.1302 9.55008L40.4992 8.71582H41.6543L41.8949 13.8016H40.7879C40.5633 12.6679 40.0767 11.748 39.328 11.0421C38.59 10.3255 37.6862 9.96722 36.6166 9.96722C35.7396 9.96722 35.0497 10.1865 34.547 10.625C34.0443 11.0635 33.793 11.593 33.793 12.2133C33.793 12.6946 33.8732 13.0957 34.0336 13.4166C34.2048 13.7374 34.4561 14.0102 34.7877 14.2348C35.1085 14.4487 35.5096 14.6519 35.9909 14.8444C36.4829 15.0263 37.0872 15.2348 37.8039 15.4701C38.5098 15.6948 39.1729 15.9568 39.7932 16.2563C40.4243 16.5558 40.943 16.8873 41.3495 17.251ZM54.8902 24.3101C54.195 24.5989 53.5372 24.8396 52.9169 25.0321C52.2965 25.2353 51.5371 25.3369 50.6387 25.3369C49.3124 25.3369 48.3765 25.0053 47.8311 24.3422C47.2963 23.6684 47.0289 22.7218 47.0289 21.5025V10.7854H44.1731V9.24526H47.0931V4.31989H50.013V9.24526H54.5533V10.7854H50.0451V19.6254C50.0451 20.2886 50.0665 20.8447 50.1092 21.2939C50.1627 21.7325 50.2804 22.1175 50.4622 22.4491C50.6333 22.7593 50.89 22.9946 51.2323 23.155C51.5745 23.3154 52.0345 23.3956 52.612 23.3956C52.8794 23.3956 53.2698 23.3743 53.7832 23.3315C54.3073 23.278 54.6763 23.2138 54.8902 23.139V24.3101ZM71.8963 16.9301C71.8963 18.0425 71.7199 19.1388 71.3669 20.219C71.014 21.2886 70.5113 22.1977 69.8588 22.9464C69.1208 23.8021 68.2652 24.4385 67.2919 24.8556C66.3185 25.2727 65.2276 25.4813 64.019 25.4813C63.0136 25.4813 62.0563 25.2941 61.1472 24.9198C60.2381 24.5347 59.4305 23.9786 58.7246 23.2513C58.0294 22.5346 57.4732 21.6629 57.0561 20.6362C56.6496 19.5987 56.4464 18.4382 56.4464 17.1547C56.4464 14.684 57.163 12.6625 58.5963 11.0903C60.0402 9.518 61.928 8.73186 64.2596 8.73186C66.4736 8.73186 68.2972 9.48056 69.7305 10.978C71.1744 12.4647 71.8963 14.4487 71.8963 16.9301ZM68.5753 16.9622C68.5753 16.16 68.4951 15.3151 68.3347 14.4273C68.1742 13.5289 67.9336 12.7695 67.6127 12.1491C67.2705 11.486 66.8212 10.9566 66.2651 10.5608C65.7089 10.1544 65.0297 9.95117 64.2275 9.95117C63.404 9.95117 62.6981 10.1544 62.1098 10.5608C61.5322 10.9673 61.0616 11.5234 60.698 12.2294C60.3557 12.8818 60.1151 13.6251 59.976 14.4594C59.837 15.2937 59.7674 16.1012 59.7674 16.882C59.7674 17.9088 59.8477 18.8607 60.0081 19.7377C60.1792 20.6041 60.4466 21.3795 60.8103 22.064C61.1739 22.7486 61.6285 23.2887 62.174 23.6844C62.7301 24.0695 63.4147 24.262 64.2275 24.262C65.5645 24.262 66.6234 23.6149 67.4042 22.3207C68.1849 21.0266 68.5753 19.2404 68.5753 16.9622ZM86.3034 11.2186C86.3034 11.7641 86.1697 12.2507 85.9023 12.6786C85.635 13.0957 85.2232 13.3043 84.667 13.3043C84.068 13.3043 83.6081 13.1492 83.2873 12.839C82.9771 12.5288 82.822 12.1866 82.822 11.8122C82.822 11.5769 82.838 11.363 82.8701 11.1705C82.9129 10.978 82.9503 10.7854 82.9824 10.5929C82.4797 10.5929 81.8915 10.7961 81.2176 11.2026C80.5438 11.609 79.9716 12.1866 79.501 12.9353V22.1443C79.501 22.5186 79.5705 22.8234 79.7095 23.0587C79.8593 23.294 80.0892 23.4705 80.3994 23.5882C80.6668 23.6951 81.0091 23.7753 81.4262 23.8288C81.854 23.8823 82.223 23.9197 82.5332 23.9411V25H74.1906V23.9411C74.4366 23.9197 74.6879 23.8983 74.9446 23.877C75.212 23.8556 75.442 23.8128 75.6345 23.7486C75.934 23.6523 76.1532 23.4866 76.2923 23.2513C76.442 23.0053 76.5169 22.6897 76.5169 22.3047V12.5342C76.5169 12.2026 76.4367 11.8764 76.2762 11.5555C76.1265 11.2347 75.9126 10.978 75.6345 10.7854C75.4313 10.6571 75.1906 10.5662 74.9125 10.5127C74.6344 10.4485 74.335 10.4057 74.0141 10.3843V9.34152L79.2764 8.98856L79.501 9.21317V11.4432H79.5812C80.2443 10.5769 80.9823 9.91908 81.7952 9.46987C82.6081 9.02065 83.3514 8.79604 84.0253 8.79604C84.6991 8.79604 85.2446 9.0153 85.6617 9.45382C86.0895 9.89235 86.3034 10.4806 86.3034 11.2186ZM95.352 25H87.6992V23.9411C87.9452 23.9197 88.1966 23.8983 88.4533 23.877C88.7207 23.8556 88.9506 23.8128 89.1431 23.7486C89.4426 23.6523 89.6619 23.4866 89.8009 23.2513C89.9507 23.0053 90.0255 22.6897 90.0255 22.3047V12.5342C90.0255 12.1919 89.9453 11.8817 89.7849 11.6037C89.6351 11.3149 89.4212 11.0742 89.1431 10.8817C88.9399 10.7533 88.6458 10.6464 88.2607 10.5608C87.8757 10.4646 87.5227 10.4057 87.2019 10.3843V9.34152L92.785 8.98856L93.0096 9.21317V22.1122C93.0096 22.4865 93.0792 22.7967 93.2182 23.0427C93.3679 23.2887 93.5979 23.4705 93.9081 23.5882C94.1434 23.6844 94.3733 23.7646 94.5979 23.8288C94.8225 23.8823 95.0739 23.9197 95.352 23.9411V25ZM93.3305 2.74763C93.3305 3.35728 93.1273 3.89207 92.7208 4.35198C92.3251 4.8012 91.8331 5.02581 91.2448 5.02581C90.6994 5.02581 90.2234 4.8119 89.817 4.38407C89.4212 3.94554 89.2234 3.4482 89.2234 2.89202C89.2234 2.30376 89.4212 1.79036 89.817 1.35184C90.2234 0.913318 90.6994 0.694057 91.2448 0.694057C91.8545 0.694057 92.3518 0.902622 92.7369 1.31975C93.1326 1.72619 93.3305 2.20215 93.3305 2.74763ZM104.609 25.4171C102.32 25.4171 100.529 24.6577 99.2345 23.139C97.9403 21.6202 97.2932 19.5826 97.2932 17.0264C97.2932 15.914 97.4644 14.8765 97.8066 13.9139C98.1596 12.9406 98.6676 12.0582 99.3308 11.2667C99.9618 10.5073 100.753 9.89769 101.705 9.43778C102.657 8.96717 103.695 8.73186 104.818 8.73186C106.369 8.73186 107.631 9.10621 108.604 9.85491C109.577 10.5929 110.064 11.6037 110.064 12.8871C110.064 13.4219 109.936 13.8979 109.679 14.315C109.422 14.7214 109 14.9247 108.411 14.9247C107.78 14.9247 107.288 14.7642 106.935 14.4434C106.593 14.1225 106.422 13.7642 106.422 13.3684C106.422 12.8871 106.486 12.3951 106.615 11.8924C106.743 11.379 106.818 11.0047 106.839 10.7694C106.647 10.4378 106.358 10.2186 105.973 10.1116C105.598 9.99395 105.192 9.93513 104.753 9.93513C104.24 9.93513 103.748 10.0474 103.277 10.272C102.818 10.486 102.368 10.887 101.93 11.4753C101.534 12.0101 101.213 12.732 100.967 13.6412C100.721 14.5503 100.598 15.6359 100.598 16.898C100.598 18.8874 101.037 20.5132 101.914 21.7753C102.802 23.0266 103.962 23.6523 105.395 23.6523C106.433 23.6523 107.299 23.401 107.994 22.8983C108.7 22.3956 109.353 21.6416 109.952 20.6362L110.978 21.31C110.272 22.5721 109.342 23.5721 108.187 24.3101C107.032 25.0481 105.839 25.4171 104.609 25.4171ZM127.198 24.7112C126.696 24.893 126.252 25.0374 125.867 25.1444C125.492 25.262 125.065 25.3209 124.583 25.3209C123.749 25.3209 123.081 25.1283 122.578 24.7433C122.086 24.3476 121.77 23.7753 121.631 23.0266H121.535C120.84 23.7967 120.091 24.385 119.289 24.7914C118.497 25.1979 117.54 25.4011 116.417 25.4011C115.23 25.4011 114.251 25.0374 113.481 24.3101C112.722 23.5828 112.342 22.6309 112.342 21.4544C112.342 20.8447 112.428 20.2992 112.599 19.8179C112.77 19.3366 113.027 18.9035 113.369 18.5184C113.636 18.1975 113.989 17.9141 114.428 17.6681C114.866 17.4114 115.278 17.2082 115.663 17.0585C116.144 16.8766 117.118 16.5397 118.583 16.0477C120.059 15.5557 121.054 15.1707 121.567 14.8926V13.3043C121.567 13.1652 121.535 12.8978 121.471 12.5021C121.417 12.1064 121.294 11.732 121.102 11.379C120.888 10.9833 120.583 10.641 120.187 10.3523C119.802 10.0528 119.251 9.90304 118.535 9.90304C118.043 9.90304 117.583 9.98861 117.155 10.1597C116.738 10.3202 116.444 10.4913 116.273 10.6731C116.273 10.887 116.321 11.2026 116.417 11.6197C116.524 12.0368 116.578 12.4219 116.578 12.7748C116.578 13.1492 116.406 13.4914 116.064 13.8016C115.733 14.1118 115.267 14.2669 114.668 14.2669C114.134 14.2669 113.738 14.0797 113.481 13.7054C113.235 13.3203 113.112 12.8925 113.112 12.4219C113.112 11.9299 113.283 11.4593 113.626 11.01C113.979 10.5608 114.433 10.1597 114.989 9.80678C115.471 9.5073 116.053 9.25595 116.738 9.05273C117.423 8.83882 118.091 8.73186 118.743 8.73186C119.642 8.73186 120.423 8.79604 121.086 8.92439C121.76 9.04204 122.369 9.30408 122.915 9.71052C123.46 10.1063 123.872 10.6464 124.15 11.3309C124.439 12.0047 124.583 12.8764 124.583 13.946C124.583 15.4755 124.567 16.8338 124.535 18.0211C124.503 19.1976 124.487 20.4864 124.487 21.8876C124.487 22.3047 124.557 22.6363 124.696 22.8823C124.845 23.1283 125.07 23.3368 125.369 23.508C125.53 23.6042 125.781 23.6577 126.123 23.6684C126.476 23.6791 126.835 23.6844 127.198 23.6844V24.7112ZM121.599 16.2402C120.69 16.5076 119.893 16.7697 119.209 17.0264C118.524 17.2831 117.888 17.6039 117.3 17.989C116.765 18.3526 116.342 18.7858 116.032 19.2885C115.722 19.7805 115.567 20.3688 115.567 21.0533C115.567 21.941 115.797 22.5935 116.257 23.0106C116.727 23.4277 117.321 23.6363 118.038 23.6363C118.797 23.6363 119.465 23.4545 120.043 23.0908C120.621 22.7165 121.107 22.2779 121.503 21.7753L121.599 16.2402ZM136.183 25H128.466V23.9411C128.712 23.9197 128.974 23.8983 129.252 23.877C129.53 23.8449 129.76 23.8021 129.942 23.7486C130.241 23.6523 130.466 23.4866 130.616 23.2513C130.765 23.0053 130.84 22.6897 130.84 22.3047V3.98298C130.84 3.59793 130.755 3.23963 130.584 2.90806C130.423 2.5658 130.209 2.29841 129.942 2.10589C129.749 1.97754 129.396 1.85989 128.883 1.75293C128.37 1.64597 127.958 1.5818 127.648 1.56041V0.533621L133.6 0.16462L133.824 0.405273V22.1122C133.824 22.4865 133.894 22.7967 134.033 23.0427C134.172 23.278 134.397 23.4598 134.707 23.5882C134.942 23.6951 135.172 23.7753 135.397 23.8288C135.632 23.8823 135.894 23.9197 136.183 23.9411V25ZM163.425 24.7112L157.906 25.0642L157.665 24.8396V23.3636L157.537 23.3315C156.981 23.9518 156.291 24.4599 155.467 24.8556C154.654 25.2513 153.815 25.4492 152.948 25.4492C152.05 25.4492 151.178 25.2513 150.333 24.8556C149.499 24.4492 148.772 23.8823 148.151 23.155C147.52 22.417 147.017 21.5293 146.643 20.4918C146.279 19.4543 146.098 18.3098 146.098 17.0585C146.098 15.914 146.296 14.8284 146.691 13.8016C147.087 12.7748 147.632 11.8764 148.328 11.1063C148.98 10.3897 149.777 9.81748 150.718 9.38965C151.67 8.96182 152.638 8.74791 153.622 8.74791C154.36 8.74791 155.082 8.84417 155.788 9.03669C156.505 9.21852 157.12 9.45382 157.633 9.74261V4.23968C157.633 3.79046 157.558 3.38402 157.408 3.02037C157.259 2.64602 157.05 2.36258 156.783 2.17006C156.483 1.96684 156.077 1.82245 155.563 1.73689C155.061 1.64062 154.515 1.5711 153.927 1.52832V0.533621L160.392 0.16462L160.633 0.405273V21.7432C160.633 22.1175 160.703 22.4384 160.842 22.7058C160.991 22.9625 161.205 23.1817 161.483 23.3636C161.687 23.4919 161.981 23.5721 162.366 23.6042C162.751 23.6363 163.104 23.6577 163.425 23.6684V24.7112ZM157.633 21.9357V12.6786C157.547 12.4005 157.408 12.101 157.216 11.7801C157.023 11.4593 156.783 11.1651 156.494 10.8977C156.184 10.6303 155.82 10.4111 155.403 10.24C154.986 10.0581 154.499 9.96722 153.943 9.96722C153.301 9.96722 152.708 10.133 152.162 10.4646C151.627 10.7961 151.151 11.2721 150.734 11.8924C150.338 12.4914 150.023 13.2561 149.788 14.1867C149.563 15.1065 149.451 16.1279 149.451 17.251C149.451 18.1494 149.536 18.9676 149.707 19.7056C149.879 20.4329 150.167 21.1121 150.574 21.7432C150.948 22.3421 151.424 22.8234 152.002 23.1871C152.59 23.5507 153.285 23.7326 154.087 23.7326C154.943 23.7326 155.649 23.5454 156.205 23.171C156.772 22.7967 157.248 22.3849 157.633 21.9357ZM172.65 25H164.997V23.9411C165.243 23.9197 165.494 23.8983 165.751 23.877C166.018 23.8556 166.248 23.8128 166.441 23.7486C166.74 23.6523 166.96 23.4866 167.099 23.2513C167.248 23.0053 167.323 22.6897 167.323 22.3047V12.5342C167.323 12.1919 167.243 11.8817 167.083 11.6037C166.933 11.3149 166.719 11.0742 166.441 10.8817C166.238 10.7533 165.943 10.6464 165.558 10.5608C165.173 10.4646 164.82 10.4057 164.5 10.3843V9.34152L170.083 8.98856L170.307 9.21317V22.1122C170.307 22.4865 170.377 22.7967 170.516 23.0427C170.666 23.2887 170.896 23.4705 171.206 23.5882C171.441 23.6844 171.671 23.7646 171.896 23.8288C172.12 23.8823 172.372 23.9197 172.65 23.9411V25ZM170.628 2.74763C170.628 3.35728 170.425 3.89207 170.019 4.35198C169.623 4.8012 169.131 5.02581 168.543 5.02581C167.997 5.02581 167.521 4.8119 167.115 4.38407C166.719 3.94554 166.521 3.4482 166.521 2.89202C166.521 2.30376 166.719 1.79036 167.115 1.35184C167.521 0.913318 167.997 0.694057 168.543 0.694057C169.152 0.694057 169.65 0.902622 170.035 1.31975C170.43 1.72619 170.628 2.20215 170.628 2.74763ZM188.148 23.3636C188.576 23.77 188.912 24.2299 189.158 24.7433C189.404 25.2567 189.527 25.8931 189.527 26.6525C189.527 27.4119 189.362 28.1231 189.03 28.7863C188.699 29.4601 188.196 30.043 187.522 30.535C186.805 31.0377 185.95 31.4281 184.955 31.7062C183.96 31.9843 182.73 32.1233 181.265 32.1233C178.869 32.1233 177.078 31.7704 175.89 31.0645C174.703 30.3692 174.11 29.3478 174.11 28.0001C174.11 26.9092 174.537 26.0482 175.393 25.4171C176.249 24.7861 177.34 24.4438 178.666 24.3903V24.1657C178.345 24.0695 178.014 23.9518 177.671 23.8128C177.329 23.663 177.035 23.4919 176.789 23.2994C176.511 23.0748 176.286 22.8127 176.115 22.5133C175.944 22.2031 175.858 21.8234 175.858 21.3742C175.858 20.8073 176.056 20.2886 176.452 19.8179C176.858 19.3366 177.468 18.9249 178.281 18.5826V18.3419C177.254 17.8606 176.457 17.2456 175.89 16.4969C175.324 15.7375 175.04 14.8605 175.04 13.8658C175.04 12.3684 175.596 11.1384 176.709 10.1758C177.832 9.21317 179.265 8.73186 181.008 8.73186C181.49 8.73186 181.966 8.77999 182.436 8.87626C182.918 8.97252 183.404 9.09552 183.896 9.24526H189.415V10.7854H185.693V10.8817C186.089 11.3416 186.383 11.8497 186.575 12.4058C186.768 12.962 186.864 13.5075 186.864 14.0423C186.864 15.4327 186.297 16.6092 185.164 17.5718C184.041 18.5345 182.73 19.0158 181.233 19.0158H179.292C179.046 19.1013 178.789 19.2564 178.522 19.481C178.254 19.7056 178.121 20.0105 178.121 20.3955C178.121 20.7912 178.233 21.0961 178.457 21.31C178.682 21.5132 178.955 21.6523 179.276 21.7271C179.586 21.8127 179.944 21.8662 180.351 21.8876C180.768 21.9089 181.196 21.925 181.634 21.9357C182.105 21.9464 182.746 21.9785 183.559 22.0319C184.383 22.0854 184.966 22.1175 185.308 22.1282C185.8 22.1496 186.292 22.2673 186.784 22.4812C187.287 22.6951 187.741 22.9892 188.148 23.3636ZM183.816 13.9781C183.816 12.7267 183.559 11.732 183.046 10.994C182.543 10.2453 181.832 9.87095 180.912 9.87095C180.409 9.87095 179.976 9.97791 179.613 10.1918C179.26 10.395 178.971 10.6892 178.746 11.0742C178.532 11.4272 178.377 11.855 178.281 12.3577C178.195 12.8497 178.153 13.3577 178.153 13.8818C178.153 15.0691 178.409 16.037 178.923 16.7857C179.447 17.5344 180.121 17.9088 180.944 17.9088C181.864 17.9088 182.57 17.5398 183.062 16.8018C183.565 16.0531 183.816 15.1118 183.816 13.9781ZM186.896 27.2461C186.896 26.6471 186.757 26.1551 186.479 25.7701C186.201 25.385 185.779 25.123 185.212 24.984C184.912 24.9412 184.297 24.893 183.367 24.8396C182.436 24.7861 181.356 24.7593 180.126 24.7593C178.971 24.984 178.147 25.3583 177.655 25.8824C177.174 26.4172 176.933 27.1017 176.933 27.936C176.933 28.3103 177.014 28.6686 177.174 29.0109C177.334 29.3531 177.612 29.6687 178.008 29.9574C178.383 30.2355 178.885 30.4601 179.516 30.6313C180.147 30.8131 180.917 30.904 181.827 30.904C183.399 30.904 184.634 30.5992 185.533 29.9895C186.442 29.3906 186.896 28.4761 186.896 27.2461ZM199.025 25H191.372V23.9411C191.618 23.9197 191.87 23.8983 192.127 23.877C192.394 23.8556 192.624 23.8128 192.816 23.7486C193.116 23.6523 193.335 23.4866 193.474 23.2513C193.624 23.0053 193.699 22.6897 193.699 22.3047V12.5342C193.699 12.1919 193.619 11.8817 193.458 11.6037C193.308 11.3149 193.094 11.0742 192.816 10.8817C192.613 10.7533 192.319 10.6464 191.934 10.5608C191.549 10.4646 191.196 10.4057 190.875 10.3843V9.34152L196.458 8.98856L196.683 9.21317V22.1122C196.683 22.4865 196.752 22.7967 196.891 23.0427C197.041 23.2887 197.271 23.4705 197.581 23.5882C197.817 23.6844 198.047 23.7646 198.271 23.8288C198.496 23.8823 198.747 23.9197 199.025 23.9411V25ZM197.004 2.74763C197.004 3.35728 196.801 3.89207 196.394 4.35198C195.998 4.8012 195.506 5.02581 194.918 5.02581C194.373 5.02581 193.897 4.8119 193.49 4.38407C193.094 3.94554 192.897 3.4482 192.897 2.89202C192.897 2.30376 193.094 1.79036 193.49 1.35184C193.897 0.913318 194.373 0.694057 194.918 0.694057C195.528 0.694057 196.025 0.902622 196.41 1.31975C196.806 1.72619 197.004 2.20215 197.004 2.74763ZM210.737 24.3101C210.042 24.5989 209.384 24.8396 208.764 25.0321C208.143 25.2353 207.384 25.3369 206.485 25.3369C205.159 25.3369 204.223 25.0053 203.678 24.3422C203.143 23.6684 202.876 22.7218 202.876 21.5025V10.7854H200.02V9.24526H202.94V4.31989H205.86V9.24526H210.4V10.7854H205.892V19.6254C205.892 20.2886 205.913 20.8447 205.956 21.2939C206.01 21.7325 206.127 22.1175 206.309 22.4491C206.48 22.7593 206.737 22.9946 207.079 23.155C207.421 23.3154 207.881 23.3956 208.459 23.3956C208.726 23.3956 209.117 23.3743 209.63 23.3315C210.154 23.278 210.523 23.2138 210.737 23.139V24.3101ZM227.31 24.7112C226.807 24.893 226.363 25.0374 225.978 25.1444C225.604 25.262 225.176 25.3209 224.695 25.3209C223.861 25.3209 223.192 25.1283 222.689 24.7433C222.197 24.3476 221.882 23.7753 221.743 23.0266H221.647C220.951 23.7967 220.203 24.385 219.401 24.7914C218.609 25.1979 217.652 25.4011 216.529 25.4011C215.342 25.4011 214.363 25.0374 213.593 24.3101C212.833 23.5828 212.454 22.6309 212.454 21.4544C212.454 20.8447 212.539 20.2992 212.71 19.8179C212.882 19.3366 213.138 18.9035 213.48 18.5184C213.748 18.1975 214.101 17.9141 214.539 17.6681C214.978 17.4114 215.39 17.2082 215.775 17.0585C216.256 16.8766 217.229 16.5397 218.695 16.0477C220.171 15.5557 221.165 15.1707 221.679 14.8926V13.3043C221.679 13.1652 221.647 12.8978 221.582 12.5021C221.529 12.1064 221.406 11.732 221.213 11.379C221 10.9833 220.695 10.641 220.299 10.3523C219.914 10.0528 219.363 9.90304 218.646 9.90304C218.154 9.90304 217.695 9.98861 217.267 10.1597C216.85 10.3202 216.555 10.4913 216.384 10.6731C216.384 10.887 216.432 11.2026 216.529 11.6197C216.636 12.0368 216.689 12.4219 216.689 12.7748C216.689 13.1492 216.518 13.4914 216.176 13.8016C215.844 14.1118 215.379 14.2669 214.78 14.2669C214.245 14.2669 213.849 14.0797 213.593 13.7054C213.347 13.3203 213.224 12.8925 213.224 12.4219C213.224 11.9299 213.395 11.4593 213.737 11.01C214.09 10.5608 214.545 10.1597 215.101 9.80678C215.582 9.5073 216.165 9.25595 216.85 9.05273C217.534 8.83882 218.203 8.73186 218.855 8.73186C219.753 8.73186 220.534 8.79604 221.197 8.92439C221.871 9.04204 222.481 9.30408 223.026 9.71052C223.572 10.1063 223.984 10.6464 224.262 11.3309C224.55 12.0047 224.695 12.8764 224.695 13.946C224.695 15.4755 224.679 16.8338 224.647 18.0211C224.615 19.1976 224.599 20.4864 224.599 21.8876C224.599 22.3047 224.668 22.6363 224.807 22.8823C224.957 23.1283 225.182 23.3368 225.481 23.508C225.641 23.6042 225.893 23.6577 226.235 23.6684C226.588 23.6791 226.946 23.6844 227.31 23.6844V24.7112ZM221.711 16.2402C220.802 16.5076 220.005 16.7697 219.32 17.0264C218.636 17.2831 217.999 17.6039 217.411 17.989C216.876 18.3526 216.454 18.7858 216.144 19.2885C215.834 19.7805 215.678 20.3688 215.678 21.0533C215.678 21.941 215.908 22.5935 216.368 23.0106C216.839 23.4277 217.433 23.6363 218.149 23.6363C218.909 23.6363 219.577 23.4545 220.155 23.0908C220.732 22.7165 221.219 22.2779 221.615 21.7753L221.711 16.2402ZM236.294 25H228.577V23.9411C228.823 23.9197 229.085 23.8983 229.364 23.877C229.642 23.8449 229.872 23.8021 230.053 23.7486C230.353 23.6523 230.578 23.4866 230.727 23.2513C230.877 23.0053 230.952 22.6897 230.952 22.3047V3.98298C230.952 3.59793 230.866 3.23963 230.695 2.90806C230.535 2.5658 230.321 2.29841 230.053 2.10589C229.861 1.97754 229.508 1.85989 228.995 1.75293C228.481 1.64597 228.069 1.5818 227.759 1.56041V0.533621L233.711 0.16462L233.936 0.405273V22.1122C233.936 22.4865 234.005 22.7967 234.145 23.0427C234.284 23.278 234.508 23.4598 234.818 23.5882C235.054 23.6951 235.284 23.7753 235.508 23.8288C235.744 23.8823 236.006 23.9197 236.294 23.9411V25ZM255.98 24.3101C255.285 24.5989 254.627 24.8396 254.006 25.0321C253.386 25.2353 252.627 25.3369 251.728 25.3369C250.402 25.3369 249.466 25.0053 248.921 24.3422C248.386 23.6684 248.118 22.7218 248.118 21.5025V10.7854H245.263V9.24526H248.183V4.31989H251.103V9.24526H255.643V10.7854H251.135V19.6254C251.135 20.2886 251.156 20.8447 251.199 21.2939C251.252 21.7325 251.37 22.1175 251.552 22.4491C251.723 22.7593 251.98 22.9946 252.322 23.155C252.664 23.3154 253.124 23.3956 253.702 23.3956C253.969 23.3956 254.359 23.3743 254.873 23.3315C255.397 23.278 255.766 23.2138 255.98 23.139V24.3101ZM281.136 10.2079C280.687 10.2507 280.2 10.4378 279.676 10.7694C279.163 11.101 278.788 11.5983 278.553 12.2614C278.018 13.8337 277.51 15.3258 277.029 16.7376C276.558 18.1387 276.029 19.7163 275.441 21.4704C275.248 22.0266 275.05 22.6256 274.847 23.2673C274.654 23.909 274.478 24.524 274.318 25.1123H272.938L268.686 13.4647L264.403 25.1123H263.087C262.285 22.7379 261.499 20.3848 260.729 18.0532C259.969 15.7108 259.295 13.6733 258.707 11.9406C258.536 11.4379 258.21 11.0421 257.729 10.7533C257.247 10.4646 256.782 10.2934 256.333 10.24V9.18108H263.392V10.3041C263.039 10.3148 262.654 10.3737 262.237 10.4806C261.83 10.5876 261.627 10.764 261.627 11.01C261.627 11.0528 261.643 11.1437 261.675 11.2828C261.718 11.4218 261.766 11.5716 261.82 11.732C262.162 12.8551 262.547 14.1118 262.975 15.5022C263.413 16.882 263.975 18.6789 264.659 20.8929L268.702 9.50195H270.242L274.366 20.7324C274.826 19.2992 275.28 17.9141 275.729 16.5771C276.189 15.2295 276.59 13.9674 276.933 12.7909C277.007 12.5128 277.077 12.2614 277.141 12.0368C277.216 11.8015 277.253 11.5716 277.253 11.347C277.253 11.1544 277.168 10.9833 276.997 10.8336C276.826 10.6838 276.617 10.5608 276.371 10.4646C276.157 10.379 275.922 10.3148 275.665 10.272C275.419 10.2293 275.237 10.2079 275.12 10.2079V9.18108H281.136V10.2079ZM289.479 25H281.826V23.9411C282.072 23.9197 282.323 23.8983 282.58 23.877C282.847 23.8556 283.077 23.8128 283.27 23.7486C283.569 23.6523 283.789 23.4866 283.928 23.2513C284.077 23.0053 284.152 22.6897 284.152 22.3047V12.5342C284.152 12.1919 284.072 11.8817 283.912 11.6037C283.762 11.3149 283.548 11.0742 283.27 10.8817C283.067 10.7533 282.772 10.6464 282.387 10.5608C282.002 10.4646 281.649 10.4057 281.329 10.3843V9.34152L286.912 8.98856L287.136 9.21317V22.1122C287.136 22.4865 287.206 22.7967 287.345 23.0427C287.495 23.2887 287.725 23.4705 288.035 23.5882C288.27 23.6844 288.5 23.7646 288.725 23.8288C288.949 23.8823 289.201 23.9197 289.479 23.9411V25ZM287.457 2.74763C287.457 3.35728 287.254 3.89207 286.848 4.35198C286.452 4.8012 285.96 5.02581 285.372 5.02581C284.826 5.02581 284.35 4.8119 283.944 4.38407C283.548 3.94554 283.35 3.4482 283.35 2.89202C283.35 2.30376 283.548 1.79036 283.944 1.35184C284.35 0.913318 284.826 0.694057 285.372 0.694057C285.981 0.694057 286.479 0.902622 286.864 1.31975C287.259 1.72619 287.457 2.20215 287.457 2.74763ZM308.891 25H301.142V23.9411C301.388 23.9197 301.656 23.8983 301.944 23.877C302.244 23.8556 302.49 23.8128 302.682 23.7486C302.982 23.6523 303.201 23.4866 303.34 23.2513C303.49 23.0053 303.565 22.6897 303.565 22.3047V14.1706C303.565 13.0476 303.297 12.1812 302.763 11.5716C302.239 10.9619 301.597 10.6571 300.837 10.6571C300.271 10.6571 299.752 10.748 299.281 10.9298C298.811 11.101 298.394 11.3149 298.03 11.5716C297.677 11.8176 297.393 12.085 297.18 12.3737C296.976 12.6518 296.827 12.8764 296.73 13.0476V22.1443C296.73 22.5079 296.805 22.8074 296.955 23.0427C297.105 23.278 297.329 23.4598 297.629 23.5882C297.853 23.6951 298.094 23.7753 298.351 23.8288C298.618 23.8823 298.891 23.9197 299.169 23.9411V25H291.42V23.9411C291.666 23.9197 291.917 23.8983 292.174 23.877C292.441 23.8556 292.671 23.8128 292.864 23.7486C293.163 23.6523 293.383 23.4866 293.522 23.2513C293.671 23.0053 293.746 22.6897 293.746 22.3047V12.5342C293.746 12.1705 293.666 11.839 293.506 11.5395C293.356 11.2293 293.142 10.978 292.864 10.7854C292.661 10.6571 292.42 10.5662 292.142 10.5127C291.864 10.4485 291.564 10.4057 291.243 10.3843V9.34152L296.506 8.98856L296.73 9.21317V11.4432H296.811C297.067 11.1865 297.388 10.8817 297.773 10.5287C298.158 10.1651 298.522 9.87095 298.864 9.64634C299.26 9.38965 299.73 9.17573 300.276 9.0046C300.821 8.83347 301.436 8.74791 302.121 8.74791C303.64 8.74791 304.763 9.22387 305.49 10.1758C306.228 11.117 306.597 12.3737 306.597 13.946V22.1763C306.597 22.5507 306.661 22.8555 306.79 23.0908C306.918 23.3154 307.137 23.4919 307.447 23.6203C307.704 23.7272 307.923 23.8021 308.105 23.8449C308.298 23.8876 308.56 23.9197 308.891 23.9411V25ZM334.176 16.9301C334.176 18.0425 333.999 19.1388 333.646 20.219C333.294 21.2886 332.791 22.1977 332.138 22.9464C331.4 23.8021 330.545 24.4385 329.571 24.8556C328.598 25.2727 327.507 25.4813 326.299 25.4813C325.293 25.4813 324.336 25.2941 323.427 24.9198C322.518 24.5347 321.71 23.9786 321.004 23.2513C320.309 22.5346 319.753 21.6629 319.336 20.6362C318.929 19.5987 318.726 18.4382 318.726 17.1547C318.726 14.684 319.443 12.6625 320.876 11.0903C322.32 9.518 324.208 8.73186 326.539 8.73186C328.753 8.73186 330.577 9.48056 332.01 10.978C333.454 12.4647 334.176 14.4487 334.176 16.9301ZM330.855 16.9622C330.855 16.16 330.775 15.3151 330.614 14.4273C330.454 13.5289 330.213 12.7695 329.892 12.1491C329.55 11.486 329.101 10.9566 328.545 10.5608C327.988 10.1544 327.309 9.95117 326.507 9.95117C325.684 9.95117 324.978 10.1544 324.389 10.5608C323.812 10.9673 323.341 11.5234 322.978 12.2294C322.635 12.8818 322.395 13.6251 322.256 14.4594C322.117 15.2937 322.047 16.1012 322.047 16.882C322.047 17.9088 322.127 18.8607 322.288 19.7377C322.459 20.6041 322.726 21.3795 323.09 22.064C323.454 22.7486 323.908 23.2887 324.454 23.6844C325.01 24.0695 325.694 24.262 326.507 24.262C327.844 24.262 328.903 23.6149 329.684 22.3207C330.465 21.0266 330.855 19.2404 330.855 16.9622ZM348.246 2.0738C348.246 2.55511 348.118 2.96154 347.861 3.29311C347.604 3.62467 347.214 3.79046 346.69 3.79046C346.358 3.79046 346.064 3.72094 345.807 3.58189C345.561 3.44285 345.332 3.25567 345.118 3.02037C344.904 2.78506 344.706 2.51767 344.524 2.21819C344.342 1.91871 344.187 1.67806 344.059 1.49623C343.342 1.52832 342.786 2.03102 342.39 3.00432C342.005 3.96694 341.813 5.50711 341.813 7.62486V9.24526H345.888V10.7854H341.813V22.1443C341.813 22.5186 341.882 22.8234 342.021 23.0587C342.171 23.294 342.401 23.4705 342.711 23.5882C342.968 23.6844 343.31 23.7646 343.738 23.8288C344.166 23.8823 344.535 23.9197 344.845 23.9411V25H336.502V23.9411C336.748 23.9197 337 23.8983 337.256 23.877C337.524 23.8556 337.754 23.8128 337.946 23.7486C338.246 23.6523 338.465 23.4866 338.604 23.2513C338.754 23.0053 338.829 22.6897 338.829 22.3047V10.7854H335.7V9.24526H338.829V8.23451C338.829 5.82799 339.449 3.88137 340.69 2.39467C341.941 0.897275 343.503 0.148577 345.374 0.148577C346.326 0.148577 347.043 0.335751 347.524 0.7101C348.005 1.08445 348.246 1.53902 348.246 2.0738Z" fill="#5D4E37"/>
<path d="M226.964 53.1871L226.723 54.2139C225.739 54.6096 224.953 54.8823 224.365 55.0321C223.777 55.1925 223.274 55.2727 222.857 55.2727C222.001 55.2727 221.359 55.0535 220.932 54.615C220.504 54.1657 220.29 53.6149 220.29 52.9625C220.29 52.7272 220.311 52.4705 220.354 52.1924C220.397 51.9036 220.466 51.5667 220.563 51.1816L222.135 45.1974C222.252 44.7375 222.343 44.3204 222.408 43.946C222.482 43.5717 222.52 43.2722 222.52 43.0476C222.52 42.331 222.365 41.7641 222.055 41.347C221.744 40.9298 221.252 40.7213 220.579 40.7213C219.862 40.7213 219.156 40.8924 218.461 41.2347C217.776 41.5662 217.001 42.1919 216.134 43.1117L213.343 55H210.359L212.878 44.2829C212.931 44.0476 212.979 43.8016 213.022 43.5449C213.076 43.2775 213.102 43.0797 213.102 42.9513C213.102 42.2561 212.926 41.7106 212.573 41.3149C212.231 40.9191 211.723 40.7213 211.049 40.7213C210.439 40.7213 209.765 40.8763 209.027 41.1865C208.289 41.486 207.434 42.1652 206.46 43.2241L203.749 55H200.765L203.155 44.6038C203.241 44.2294 203.321 43.8284 203.396 43.4005C203.481 42.9727 203.524 42.609 203.524 42.3096C203.524 41.6892 203.423 41.2828 203.219 41.0903C203.016 40.887 202.62 40.7854 202.032 40.7854C201.797 40.7854 201.492 40.8282 201.118 40.9138C200.754 40.9993 200.471 41.0689 200.267 41.1223L200.508 40.0956C201.342 39.7212 202.08 39.4431 202.722 39.2613C203.364 39.0795 203.915 38.9886 204.375 38.9886C205.23 38.9886 205.835 39.2239 206.188 39.6945C206.551 40.1544 206.744 40.7854 206.765 41.5876H206.861C208.123 40.5929 209.161 39.8816 209.974 39.4538C210.787 39.026 211.755 38.8121 212.878 38.8121C213.83 38.8121 214.6 39.0902 215.188 39.6463C215.787 40.1918 216.124 40.8817 216.199 41.716H216.263C217.407 40.764 218.423 40.0421 219.311 39.5501C220.21 39.0581 221.252 38.8121 222.44 38.8121C223.466 38.8121 224.253 39.1116 224.798 39.7105C225.354 40.2988 225.632 41.0742 225.632 42.0368C225.632 42.2294 225.6 42.5716 225.536 43.0636C225.483 43.5556 225.392 44.0423 225.263 44.5236L223.916 49.6735C223.819 50.0158 223.728 50.4116 223.643 50.8608C223.557 51.2993 223.515 51.6416 223.515 51.8876C223.515 52.4972 223.643 52.9143 223.9 53.139C224.156 53.3529 224.589 53.4598 225.199 53.4598C225.402 53.4598 225.696 53.4331 226.081 53.3796C226.467 53.3261 226.761 53.262 226.964 53.1871ZM236.75 53.2513L236.51 54.278C235.526 54.6738 234.74 54.9465 234.151 55.0963C233.563 55.2567 233.06 55.3369 232.643 55.3369C231.788 55.3369 231.146 55.1177 230.718 54.6791C230.29 54.2299 230.076 53.6791 230.076 53.0266C230.076 52.7806 230.098 52.5239 230.14 52.2566C230.183 51.9892 230.253 51.6523 230.349 51.2458L232.05 44.4273C232.135 44.053 232.215 43.6519 232.29 43.2241C232.376 42.7962 232.419 42.4326 232.419 42.1331C232.419 41.5341 232.317 41.1384 232.114 40.9459C231.921 40.7427 231.52 40.641 230.911 40.641C230.675 40.641 230.36 40.6785 229.964 40.7533C229.579 40.8282 229.285 40.8924 229.082 40.9459L229.322 39.9191C230.157 39.5447 230.905 39.2666 231.568 39.0848C232.231 38.903 232.756 38.8121 233.141 38.8121C234.018 38.8121 234.654 39.0206 235.05 39.4378C235.446 39.8549 235.643 40.4164 235.643 41.1223C235.643 41.3149 235.622 41.5769 235.579 41.9085C235.536 42.24 235.472 42.5716 235.387 42.9032L233.67 49.7217C233.563 50.1388 233.467 50.5506 233.381 50.957C233.306 51.3528 233.269 51.679 233.269 51.9357C233.269 52.5453 233.403 52.9625 233.67 53.1871C233.948 53.4117 234.392 53.524 235.002 53.524C235.205 53.524 235.494 53.4973 235.868 53.4438C236.253 53.3903 236.547 53.3261 236.75 53.2513ZM237.89 32.7476C237.89 33.3573 237.692 33.8921 237.296 34.352C236.9 34.8012 236.408 35.0258 235.82 35.0258C235.274 35.0258 234.804 34.8119 234.408 34.3841C234.012 33.9455 233.814 33.4482 233.814 32.892C233.814 32.3038 234.012 31.7904 234.408 31.3518C234.804 30.9133 235.274 30.6941 235.82 30.6941C236.43 30.6941 236.927 30.9026 237.312 31.3198C237.697 31.7262 237.89 32.2021 237.89 32.7476ZM247.323 30.4053L242.847 49.7217C242.751 50.1281 242.66 50.5346 242.574 50.941C242.489 51.3474 242.446 51.679 242.446 51.9357C242.446 52.5453 242.58 52.9625 242.847 53.1871C243.125 53.4117 243.569 53.524 244.179 53.524C244.392 53.524 244.708 53.4973 245.125 53.4438C245.553 53.3903 245.874 53.3261 246.088 53.2513L245.847 54.278C244.884 54.6631 244.141 54.9358 243.617 55.0963C243.104 55.2567 242.521 55.3369 241.868 55.3369C241.013 55.3369 240.36 55.1177 239.911 54.6791C239.472 54.2299 239.253 53.6791 239.253 53.0266C239.253 52.7806 239.275 52.5239 239.317 52.2566C239.371 51.9892 239.44 51.6523 239.526 51.2458L243.425 34.352C243.499 34.0204 243.548 33.7905 243.569 33.6621C243.601 33.5338 243.617 33.3733 243.617 33.1808C243.617 32.7958 243.553 32.5016 243.425 32.2984C243.296 32.0845 243.114 31.9241 242.879 31.8171C242.654 31.7208 242.371 31.6567 242.029 31.6246C241.686 31.5925 241.339 31.5551 240.986 31.5123L241.211 30.5336L247.163 30.1646L247.323 30.4053ZM258.233 52.8823H258.12C257.885 53.0748 257.602 53.3208 257.27 53.6203C256.949 53.909 256.57 54.1871 256.131 54.4545C255.714 54.7219 255.259 54.9519 254.767 55.1444C254.275 55.3476 253.741 55.4492 253.163 55.4492C251.612 55.4492 250.393 54.893 249.505 53.7807C248.628 52.6683 248.189 51.1496 248.189 49.2243C248.189 47.8981 248.435 46.6092 248.927 45.3578C249.419 44.1064 250.099 42.9834 250.965 41.9887C251.789 41.0368 252.767 40.272 253.901 39.6945C255.035 39.1062 256.201 38.8121 257.398 38.8121C258.158 38.8121 258.88 38.9137 259.564 39.1169C260.26 39.3201 260.805 39.5501 261.201 39.8068L264.137 39.0527L264.329 39.2934L261.891 49.6415C261.805 49.973 261.714 50.3795 261.618 50.8608C261.532 51.3314 261.49 51.679 261.49 51.9036C261.49 52.5133 261.618 52.925 261.875 53.139C262.131 53.3529 262.564 53.4598 263.174 53.4598C263.377 53.4598 263.666 53.4277 264.04 53.3636C264.415 53.2994 264.704 53.2299 264.907 53.155L264.666 54.1818C263.704 54.5668 262.987 54.8449 262.516 55.016C262.046 55.1872 261.473 55.2727 260.8 55.2727C260.03 55.2727 259.42 55.0481 258.971 54.5989C258.521 54.1497 258.275 53.5775 258.233 52.8823ZM260.527 42.7427C260.527 42.3898 260.489 42.0529 260.415 41.732C260.34 41.4111 260.185 41.1117 259.949 40.8336C259.735 40.5662 259.441 40.3523 259.067 40.1918C258.693 40.0314 258.222 39.9512 257.655 39.9512C256.874 39.9512 256.115 40.2079 255.377 40.7213C254.639 41.2347 253.976 41.9245 253.388 42.7909C252.831 43.6037 252.377 44.5878 252.024 45.7429C251.671 46.898 251.494 48.0692 251.494 49.2564C251.494 49.9089 251.532 50.4864 251.607 50.9891C251.682 51.4918 251.826 51.9517 252.04 52.3689C252.243 52.7753 252.537 53.0908 252.922 53.3154C253.307 53.54 253.794 53.6523 254.382 53.6523C254.981 53.6523 255.607 53.4866 256.259 53.155C256.922 52.8127 257.666 52.2191 258.489 51.3742L260.527 42.7427ZM284.336 53.139L284.095 54.1657C283.132 54.5508 282.384 54.8289 281.849 55C281.314 55.1818 280.774 55.2727 280.228 55.2727C279.373 55.2727 278.731 55.0535 278.303 54.615C277.875 54.1657 277.661 53.6149 277.661 52.9625C277.661 52.7272 277.683 52.4705 277.726 52.1924C277.768 51.9036 277.838 51.5667 277.934 51.1816L279.506 45.1974C279.624 44.7375 279.715 44.3204 279.779 43.946C279.854 43.5717 279.891 43.2722 279.891 43.0476C279.891 42.331 279.72 41.7641 279.378 41.347C279.036 40.9298 278.528 40.7213 277.854 40.7213C277.201 40.7213 276.469 40.9352 275.656 41.363C274.843 41.7908 274.078 42.4112 273.362 43.2241L270.65 55H267.666L270.057 44.6038C270.11 44.3471 270.185 43.9781 270.281 43.4968C270.388 43.0048 270.442 42.609 270.442 42.3096C270.442 41.7106 270.34 41.3095 270.137 41.1063C269.934 40.9031 269.527 40.8015 268.918 40.8015C268.682 40.8015 268.383 40.8443 268.019 40.9298C267.656 41.0047 267.372 41.0689 267.169 41.1223L267.41 40.0956C268.244 39.7212 268.982 39.4431 269.624 39.2613C270.265 39.0795 270.816 38.9886 271.276 38.9886C272.121 38.9886 272.725 39.2185 273.089 39.6784C273.453 40.1383 273.645 40.7747 273.667 41.5876H273.763C274.939 40.6464 275.955 39.9512 276.811 39.502C277.667 39.042 278.64 38.8121 279.731 38.8121C280.758 38.8121 281.56 39.1116 282.138 39.7105C282.715 40.2988 283.004 41.0742 283.004 42.0368C283.004 42.2294 282.972 42.5716 282.908 43.0636C282.854 43.5556 282.763 44.0423 282.635 44.5236L281.287 49.6735C281.191 50.0158 281.095 50.4116 280.998 50.8608C280.913 51.2993 280.87 51.6416 280.87 51.8876C280.87 52.4972 281.004 52.9143 281.271 53.139C281.539 53.3529 281.977 53.4598 282.587 53.4598C282.79 53.4598 283.079 53.4277 283.453 53.3636C283.838 53.2887 284.132 53.2138 284.336 53.139Z" fill="#A0522D"/>
<line x1="194.5" y1="59" x2="194.5" y2="35" stroke="#8B4513"/>
<line x1="289.5" y1="59" x2="289.5" y2="35" stroke="#8B4513"/>
<line x1="290" y1="35.5" x2="349" y2="35.5" stroke="#8B4513"/>
<line x1="194" y1="35.5" y2="35.5" stroke="#8B4513"/>
</svg>
